<svg height="512pt" viewBox="0 0 512 512" width="512pt" xmlns="http://www.w3.org/2000/svg"><path d="m512 256c0 5.429688-.171875 10.820312-.511719 16.171875-.207031 3.429687-.488281 6.847656-.839843 10.238281-.1875 1.800782-.386719 3.589844-.617188 5.378906-.109375 1.011719-.242188 2.011719-.382812 3.011719-1.167969 8.589844-2.757813 17.039063-4.769532 25.339844-3.019531 12.589844-6.980468 24.808594-11.789062 36.589844-33.019532 80.839843-106.179688 141.03125-194.710938 155.769531-.039062.011719-.078125.011719-.117187.019531-13.75 2.289063-27.871094 3.480469-42.261719 3.480469-2.378906 0-4.738281-.03125-7.101562-.101562-.296876-.007813-.597657-.019532-.898438-.027344-.070312 0-.140625-.011719-.210938-.011719-.289062-.007813-.578124-.019531-.867187-.03125-1.8125-.058594-3.613281-.136719-5.402344-.238281-7.621093-.410156-15.148437-1.179688-22.578125-2.261719-1.851562-.269531-3.691406-.558594-5.519531-.867187-1.121094-.191407-2.242187-.382813-3.351563-.589844-1.730468-.3125-3.449218-.640625-5.171874-.992188-116.898438-23.667968-204.898438-127-204.898438-250.878906 0-141.378906 114.621094-256 256-256 116.921875 0 215.53125 78.378906 246.160156 185.46875 2.480469 8.660156 4.511719 17.5 6.070313 26.511719 1.007812 5.859375 1.828125 11.789062 2.441406 17.78125.027344.339843.066406.667969.097656 1.007812.808594 8.289063 1.230469 16.71875 1.230469 25.230469zm0 0" fill="#5c6b99"/><path d="m504.878906 316.140625c-3.019531 12.589844-6.980468 24.808594-11.789062 36.589844-33.019532 80.839843-106.179688 141.03125-194.710938 155.769531-.039062.011719-.078125.011719-.117187.019531-13.75 2.289063-27.871094 3.480469-42.261719 3.480469-2.378906 0-4.738281-.03125-7.101562-.101562-.296876-.007813-.597657-.019532-.898438-.027344-.070312 0-.140625-.011719-.210938-.011719-.289062-.007813-.578124-.019531-.867187-.03125l-97.941406-97.5-17.03125-135.367187-18.449219-18 77.921875-51.820313c1.839844-25.289063 18.1875-46.539063 40.777344-55.46875-.320313-.300781-2.929688-2.933594-2.929688-2.933594l54.429688-55.4375zm0 0" fill="#455373"/><path d="m320.773438 226.855469h-129.546876v-12.953125c0-35.773438 29-64.773438 64.773438-64.773438s64.773438 29 64.773438 64.773438zm0 0" fill="#ff6680"/><path d="m256 149.128906v77.726563h64.773438v-12.953125c0-35.773438-29-64.773438-64.773438-64.773438zm0 0" fill="#d14960"/><path d="m294.863281 122.535156c0 21.464844-17.398437 38.863282-38.863281 38.863282s-38.863281-17.398438-38.863281-38.863282 17.398437-38.863281 38.863281-38.863281 38.863281 17.398437 38.863281 38.863281zm0 0" fill="#ffbfab"/><path d="m363.015625 414.328125h-214.03125l-22.53125-179.011719h259.09375zm0 0" fill="#ffdf4c"/><path d="m256 235.316406v179.011719h107.015625l22.53125-179.011719zm0 0" fill="#d4b93f"/><path d="m113.5 209.140625h285v51.820313h-285zm0 0" fill="#45e595"/><path d="m256 209.140625h142.5v51.820313h-142.5zm0 0" fill="#39bf7c"/><path d="m281.910156 337.644531c0 14.308594-11.601562 25.910157-25.910156 25.910157s-25.910156-11.601563-25.910156-25.910157c0-14.308593 11.601562-25.910156 25.910156-25.910156s25.910156 11.601563 25.910156 25.910156zm0 0" fill="#808aff"/><path d="m256 311.734375v51.820313c14.308594 0 25.910156-11.601563 25.910156-25.910157 0-14.308593-11.601562-25.910156-25.910156-25.910156zm0 0" fill="#666ecc"/><path d="m256 83.671875v77.726563c21.464844 0 38.863281-17.402344 38.863281-38.863282 0-21.464844-17.398437-38.863281-38.863281-38.863281zm0 0" fill="#ffa78f"/></svg>