<svg height="512pt" viewBox="0 0 512 512.00015" width="512pt" xmlns="http://www.w3.org/2000/svg"><path d="m512 256.269531c0 .320313 0 .640625-.011719.960938 0 1.308593-.019531 2.621093-.046875 3.917969-.070312 3.480468-.203125 6.953124-.410156 10.402343-.511719 8.507813-1.429688 16.898438-2.75 25.148438-.210938 1.339843-.441406 2.660156-.671875 3.992187-.328125 1.867188-.679687 3.738282-1.050781 5.597656-1.148438 5.761719-2.488282 11.449219-4.019532 17.0625-.367187 1.359376-.75 2.707032-1.140624 4.058594-.699219 2.429688-1.4375 4.851563-2.21875 7.25-3.210938 9.960938-7.007813 19.640625-11.371094 29.019532-27.457032 59.152343-76.839844 106.050781-137.699219 130.269531-.320313.132812-.628906.25-.949219.371093-11.03125 4.339844-22.441406 7.941407-34.160156 10.71875-.179688.050782-.351562.089844-.53125.132813-.128906.027344-.257812.058594-.386719.089844-1.023437.238281-2.050781.46875-3.082031.699219-3.710938.820312-7.449219 1.558593-11.210938 2.21875-10.070312 1.761718-20.347656 2.929687-30.789062 3.460937-.078125 0-.167969.007813-.25.007813-.621094.042968-1.238281.070312-1.859375.101562-.332031.011719-.671875.03125-1 .039062-3.53125.152344-7.089844.210938-10.660156.210938-12.550781-.011719-24.898438-.929688-36.960938-2.699219-4.308593-.621093-8.578125-1.351562-12.808593-2.191406-.230469-.050781-.472657-.089844-.699219-.140625-12.929688-2.597656-25.492188-6.167969-37.621094-10.628906-3.519531-1.300782-7-2.667969-10.449219-4.121094-92.421875-38.6875-157.300781-130.039062-157.191406-236.488281.148438-141.378907 114.890625-255.878907 256.269531-255.730469 119.0625.128906 219.0625 81.511719 247.5625 191.640625.339844 1.328125.679688 2.660156 1 4 .699219 2.890625 1.347657 5.789063 1.949219 8.71875.390625 1.929687.769531 3.871094 1.109375 5.820313.121094.582031.21875 1.160156.320313 1.742187 1.140624 6.519531 2.019531 13.117187 2.648437 19.796875.421875 4.429688.722656 8.890625.910156 13.382812.160157 3.699219.230469 7.429688.230469 11.167969zm0 0" fill="#ffdf4c"/><path d="m507.058594 306.289062c-1.148438 5.761719-2.488282 11.449219-4.019532 17.0625-.367187 1.359376-.75 2.707032-1.140624 4.058594-.699219 2.429688-1.4375 4.851563-2.21875 7.25-3.210938 9.960938-7.007813 19.640625-11.371094 29.019532-27.457032 59.152343-76.839844 106.050781-137.699219 130.269531-.320313.132812-.628906.25-.949219.371093-11.03125 4.339844-22.441406 7.941407-34.160156 10.71875l-79.5-79.339843v-10.367188l-20-19.5v-65.222656l-52.5-52 145.53125-170.339844s197.988281 197.992188 198.027344 198.019531zm0 0" fill="#d4b93f"/><path d="m236 380.699219h40v45h-40zm0 0" fill="#ff6680"/><path d="m256 380.699219h20v45h-20zm0 0" fill="#d14960"/><path d="m216 195.832031h80v200h-80zm0 0" fill="#808aff"/><path d="m256 195.832031h40v200h-40zm0 0" fill="#666ecc"/><path d="m241 314.71875h30v45h-30zm0 0" fill="#45e595"/><path d="m256 314.71875h15v45h-15zm0 0" fill="#39bf7c"/><path d="m331 161.300781c0 41.417969-33.578125 75-75 75s-75-33.582031-75-75c0-41.421875 33.578125-75 75-75s75 33.578125 75 75zm0 0" fill="#5c6b99"/><path d="m256 86.300781v150c41.421875 0 75-33.582031 75-75 0-41.421875-33.578125-75-75-75zm0 0" fill="#455373"/><path d="m163.5 198.605469h185v80h-185zm0 0" fill="#ff6680"/><path d="m256 198.605469h92.5v80h-92.5zm0 0" fill="#d14960"/><g fill="#fff"><path d="m193.164062 255.726562h22.394532v8.472657h-32.9375v-51.1875h10.546875v42.714843zm0 0"/><path d="m234.621094 264.199219h-10.546875v-51.1875h10.546875zm0 0"/><path d="m265.109375 251.507812 11.601563-38.496093h11.742187l-17.824219 51.1875h-11.003906l-17.753906-51.1875h11.707031zm0 0"/></g><path d="m325.867188 242.015625h-20.25v13.710937h23.765624v8.472657h-34.3125v-51.1875h34.242188v8.542969h-23.695312v12.199218h20.25zm0 0" fill="#ebebeb"/><path d="m276.710938 213.011719-11.601563 38.496093-9.109375-30.40625v32.652344l3.625 10.445313h11.003906l17.824219-51.1875zm0 0" fill="#ebebeb"/></svg>