<svg height="512pt" viewBox="0 0 512 512.00015" width="512pt" xmlns="http://www.w3.org/2000/svg"><path d="m512 256.269531c0 .320313 0 .640625-.011719.960938 0 1.308593-.019531 2.621093-.046875 3.917969-.070312 3.480468-.203125 6.953124-.410156 10.402343-.300781 5.070313-.75 10.097657-1.351562 15.078125-.238282 2-.5 3.992188-.78125 5.972656-.386719 2.707032-.816407 5.410157-1.289063 8.089844-1.148437 6.519532-2.539063 12.949219-4.179687 19.289063-1.558594 6.039062-3.320313 11.988281-5.300782 17.839843-.140625.410157-.269531.808594-.410156 1.210938-.238281.699219-.480469 1.390625-.730469 2.078125-24.558593 69.730469-78.46875 125.621094-146.878906 152.839844-3.121094 1.25-6.277344 2.429687-9.460937 3.53125-.417969.160156-.839844.308593-1.257813.449219-.789063.269531-1.582031.539062-2.378906.808593-7.371094 2.480469-14.882813 4.632813-22.542969 6.433594-1.320312.308594-2.636719.609375-3.96875.898437-3.148438.691407-6.320312 1.320313-9.511719 1.890626-.398437.078124-.796875.148437-1.199219.21875-10.148437 1.769531-20.507812 2.949218-31.039062 3.46875-.300781.023437-.589844.042968-.890625.050781-.320313.019531-.648437.03125-.96875.050781-.332031.011719-.671875.03125-1 .039062-3.53125.152344-7.089844.210938-10.660156.210938-12.550781-.011719-24.898438-.929688-36.960938-2.699219-4.308593-.621093-8.578125-1.351562-12.808593-2.191406-.230469-.050781-.472657-.089844-.699219-.140625-12.929688-2.597656-25.492188-6.167969-37.621094-10.628906-3.519531-1.300782-7-2.667969-10.449219-4.121094-92.421875-38.6875-157.300781-130.039062-157.191406-236.488281.148438-141.378907 114.890625-255.878907 256.269531-255.730469 119.0625.128906 219.0625 81.511719 247.5625 191.640625.339844 1.328125.679688 2.660156 1 4 .699219 2.890625 1.347657 5.789063 1.949219 8.71875.390625 1.929687.769531 3.871094 1.109375 5.820313.121094.582031.21875 1.160156.320313 1.742187 1.140624 6.519531 2.019531 13.117187 2.648437 19.796875.421875 4.429688.722656 8.890625.910156 13.382812.160157 3.699219.230469 7.429688.230469 11.167969zm0 0" fill="#ffdf4c"/><path d="m509.398438 292.601562c-.386719 2.707032-.816407 5.410157-1.289063 8.089844-1.148437 6.519532-2.539063 12.949219-4.179687 19.289063-1.558594 6.039062-3.320313 11.988281-5.300782 17.839843-.140625.410157-.269531.808594-.410156 1.210938-.238281.699219-.480469 1.390625-.730469 2.078125-24.558593 69.730469-78.46875 125.621094-146.878906 152.839844-3.121094 1.25-6.277344 2.429687-9.460937 3.53125-.417969.160156-.839844.308593-1.257813.449219-.789063.269531-1.582031.539062-2.378906.808593-7.371094 2.480469-14.882813 4.632813-22.542969 6.433594-1.320312.308594-2.636719.609375-3.96875.898437-3.148438.691407-6.320312 1.320313-9.511719 1.890626-.398437.078124-.796875.148437-1.199219.21875-10.148437 1.769531-20.507812 2.949218-31.039062 3.46875-.300781.023437-.589844.042968-.890625.050781-.230469-.230469-163.6875-163.6875-163.6875-163.6875l30.367187-76.3125 216.761719-136.699219s157.398438 157.398438 157.597657 157.601562zm0 0" fill="#d4b93f"/><path d="m421 319.789062c0-39.054687-73.871094-70.714843-165-70.714843-91.125 0-165 31.660156-165 70.714843 0 39.054688 73.875 70.714844 165 70.714844 91.128906 0 165-31.660156 165-70.714844zm0 0" fill="#455373"/><path d="m256 249.074219v141.429687c91.128906 0 165-31.660156 165-70.714844 0-39.054687-73.871094-70.714843-165-70.714843zm0 0" fill="#39445b"/><path d="m379.636719 300.304688c.070312-.628907.113281-1.253907.113281-1.886719 0-1.851563-14.492188-134.644531-14.492188-134.644531-3.71875-35.308594-42.0625-53.964844-70.480468-34.285157l-38.777344 28.035157-38.777344-28.035157c-28.417968-19.679687-66.761718-1.023437-70.480468 34.285157 0 0-14.492188 132.792968-14.492188 134.644531 0 .632812.042969 1.257812.113281 1.886719l.152344 1.074218c4.140625 23.828125 57.835937 42.679688 123.484375 42.679688s119.34375-18.851563 123.484375-42.679688zm0 0" fill="#5c6b99"/><path d="m365.257812 163.773438c-3.71875-35.308594-42.0625-53.964844-70.480468-34.285157l-38.777344 28.035157v186.535156c65.644531 0 119.34375-18.851563 123.484375-42.679688l.152344-1.074218c.070312-.628907.113281-1.253907.113281-1.886719 0-1.851563-14.492188-134.644531-14.492188-134.644531zm0 0" fill="#455373"/><path d="m256 308.703125c-59.511719 0-109.199219-15.492187-121.054688-36.140625-1.59375 14.878906-2.695312 25.34375-2.695312 25.855469 0 .632812.042969 1.257812.113281 1.886719l.152344 1.074218c4.140625 23.828125 57.835937 42.679688 123.484375 42.679688s119.34375-18.851563 123.484375-42.679688l.152344-1.074218c.070312-.628907.113281-1.253907.113281-1.886719 0-.511719-1.101562-10.976563-2.695312-25.855469-11.855469 20.644531-61.542969 36.140625-121.054688 36.140625zm0 0" fill="#fff"/><path d="m377.054688 272.5625c-11.855469 20.644531-61.542969 36.140625-121.054688 36.140625v35.355469c65.644531 0 119.34375-18.851563 123.484375-42.679688l.152344-1.074218c.070312-.628907.113281-1.253907.113281-1.886719 0-.511719-1.101562-10.976563-2.695312-25.855469zm0 0" fill="#ebebeb"/></svg>