<svg height="512pt" viewBox="0 0 512 512.00006" width="512pt" xmlns="http://www.w3.org/2000/svg"><path d="m511.980469 258.511719c0 1.332031-.019531 2.660156-.0625 3.992187-.058594 2.417969-.160157 4.839844-.289063 7.238282-.148437 2.78125-.339844 5.539062-.578125 8.289062-8.5 99.550781-73.691406 182.269531-162.519531 216.71875-6.941406 2.710938-14 5.089844-21.160156 7.171875-12.429688 3.609375-25.121094 6.226563-37.941406 7.90625-.808594.113281-1.628907.210937-2.4375.3125-3.230469.390625-6.460938.730469-9.699219.988281-1.089844.089844-2.203125.179688-3.300781.25-.351563.03125-.691407.050782-1.039063.070313-.53125.03125-1.050781.070312-1.582031.089843-1.628906.101563-3.257813.179688-4.878906.242188-3.371094.140625-6.730469.207031-10.089844.21875-2.300782 0-4.601563-.019531-6.902344-.078125-136.207031-3.460937-244.855469-112.710937-249.347656-247.128906-.1796878-5.089844-.199219-10.199219-.0703128-15.289063.1406248-5.691406.4804688-11.371094.9999998-17.03125.160157-1.789062.351563-3.570312.550781-5.359375.832032-7.460937 2.160157-14.851562 3.492188-22.230469 24.1875-119.480468 131.296875-208 257.375-204.7968745 133.230469 3.3867185 240.109375 107.9882815 248.898438 238.3671875.121093 1.828125.230468 3.667969.3125 5.5.109374 2.289063.179687 4.578125.21875 6.878906.058593 2.550781.078124 5.109375.050781 7.679688zm0 0" fill="#5c6b99"/><path d="m511.980469 258.511719c0 1.332031-.019531 2.660156-.0625 3.992187-.058594 2.417969-.160157 4.839844-.289063 7.238282-.148437 2.78125-.339844 5.539062-.578125 8.289062-8.5 99.550781-73.691406 182.269531-162.519531 216.71875-6.941406 2.710938-14 5.089844-21.160156 7.171875-12.429688 3.609375-25.121094 6.226563-37.941406 7.90625-.808594.113281-1.628907.210937-2.4375.3125l-101-100.371094v-16.917969l-61.230469-61.238281 15.371093-69.371093-19.140624-19v-41.289063l-25-24 25-30 30-19.71875 19 19.71875h6l20.78125 21 123.148437 4.429687 41.070313 39.859376v-11.289063l-25-24 25-30 30-19.71875 19 19.71875h6l95.71875 96c.109374 2.289063.179687 4.578125.21875 6.878906.058593 2.550781.078124 5.109375.050781 7.679688zm0 0" fill="#455373"/><path d="m387.226562 277.613281-49.5-49.496093-21.210937 21.214843 40.710937 40.707031v29.148438l-52.46875 52.46875 21.210938 21.210938 61.253906-61.253907h.003906v-53.984375h-.015624zm0 0" fill="#d14960"/><path d="m124.757812 277.613281 49.496094-49.496093 21.214844 21.214843-40.710938 40.707031v29.148438l52.46875 52.46875-21.214843 21.210938-61.253907-61.253907v-53.984375h.015626zm0 0" fill="#ff6680"/><path d="m360.992188 128.234375v85.007813h-210v-85.007813h-30v115.007813h270v-115.007813zm0 0" fill="#ff6680"/><path d="m360.992188 128.234375v85.007813h-105v30h135v-115.007813zm0 0" fill="#d14960"/><path d="m180.519531 221.097656h149.996094v60h-149.996094zm0 0" fill="#ffdf4c"/><path d="m255.992188 221.097656h74.523437v60h-74.523437zm0 0" fill="#d4b93f"/><path d="m345.738281 243.429688c.164063-2.222657.25-4.46875.25-6.730469 0-49.707031-40.292969-90-89.996093-90-49.707032 0-90 40.292969-90 90 0 2.265625.085937 4.507812.25 6.730469zm0 0" fill="#fff"/><path d="m255.992188 146.699219v96.726562h89.75c.164062-2.21875.25-4.464843.25-6.726562 0-49.707031-40.296876-90-90-90zm0 0" fill="#ebebeb"/><path d="m335.992188 147.953125h80v30h-80zm0 0" fill="#39bf7c"/><path d="m95.992188 147.953125h80v30h-80zm0 0" fill="#45e595"/><path d="m303.492188 344.125h-95l15.832031-43.925781h63.335937zm0 0" fill="#45e595"/><path d="m255.992188 344.125h47.5l-15.832032-43.925781h-31.667968zm0 0" fill="#39bf7c"/><path d="m185.992188 329.769531h140v80h-140zm0 0" fill="#808aff"/><path d="m255.992188 329.769531h70v80h-70zm0 0" fill="#666ecc"/><path d="m278.492188 369.769531c0 12.425781-10.074219 22.5-22.5 22.5-12.425782 0-22.5-10.074219-22.5-22.5s10.074218-22.5 22.5-22.5c12.425781 0 22.5 10.074219 22.5 22.5zm0 0" fill="#fff"/><path d="m255.992188 347.269531v45c12.425781 0 22.5-10.074219 22.5-22.5 0-12.429687-10.074219-22.5-22.5-22.5zm0 0" fill="#ebebeb"/></svg>